<svg width="1920" height="286" viewBox="0 0 1920 286" fill="none" xmlns="http://www.w3.org/2000/svg">
<rect width="1920" height="286" fill="url(#paint0_linear_77_5344)" fill-opacity="0.03"></rect>
<path d="M996.971 116.199C995.424 116.468 993.932 116.736 992.5 117C993.747 116.71 995.244 116.443 996.971 116.199C1044.06 107.992 1142.88 97.7117 1195.5 117C1140.96 114.749 1029.14 111.644 996.971 116.199Z" fill="url(#paint1_linear_77_5344)"></path>
<rect x="849.5" y="186" width="40" height="40" rx="20" fill="url(#paint2_linear_77_5344)"></rect>
<g opacity="0.1" clip-path="url(#clip0_77_5344)">
<path d="M395.446 119.492L380.408 112.605C379.702 112.281 378.866 112.592 378.542 113.299L364.843 143.21L342.797 133.113C339.846 131.761 336.651 132.859 335.366 135.665L332.608 141.685C331.275 144.596 332.513 148.028 335.367 149.335L357.413 159.432L345.865 184.645C345.541 185.352 345.851 186.188 346.558 186.511L361.595 193.398C361.949 193.56 362.334 193.563 362.672 193.438C363.01 193.312 363.3 193.058 363.461 192.705L375.009 167.492L391.89 175.224C391.896 175.226 391.902 175.227 391.907 175.228C392.096 175.313 392.302 175.355 392.509 175.351L409.944 174.948C410.21 174.942 410.468 174.861 410.689 174.714C410.911 174.567 411.086 174.361 411.195 174.119C411.304 173.877 411.343 173.609 411.306 173.346C411.27 173.083 411.159 172.836 410.988 172.633L399.81 159.374C399.682 159.223 399.523 159.101 399.344 159.015C399.336 159.011 399.329 159.005 399.32 159.001L382.439 151.27L396.139 121.358C396.463 120.651 396.152 119.816 395.446 119.492ZM336.539 146.776C335.12 146.126 334.493 144.332 335.168 142.858L337.925 136.837C338.235 136.162 338.729 135.741 339.297 135.53C340.033 135.256 340.89 135.336 341.624 135.672L347.075 138.168L341.989 149.272L336.539 146.776ZM370.72 170.097L364.801 167.386C364.095 167.062 363.259 167.372 362.935 168.079C362.611 168.786 362.922 169.621 363.629 169.945L369.548 172.656L367.789 176.495L365.07 175.25C364.363 174.926 363.528 175.237 363.204 175.943C362.88 176.65 363.191 177.485 363.898 177.809L366.617 179.055L364.859 182.894L358.94 180.183C358.233 179.859 357.398 180.17 357.074 180.877C356.75 181.583 357.061 182.419 357.768 182.742L363.686 185.453L361.488 190.252L349.011 184.538L359.972 160.605L372.45 166.32L370.72 170.097ZM344.549 150.444L346.478 146.233L393.712 167.866L391.783 172.078L344.549 150.444ZM406.942 172.201L394.693 172.485L396.848 167.779C396.852 167.773 396.856 167.766 396.859 167.759C396.862 167.752 396.864 167.745 396.867 167.738L399.089 162.886L406.942 172.201ZM396.868 160.975L394.884 165.307L347.65 143.673L349.635 139.341L396.868 160.975ZM391.235 125.305L388.515 124.059C387.809 123.736 386.973 124.046 386.65 124.753C386.326 125.46 386.636 126.295 387.343 126.619L390.063 127.864L388.304 131.704L382.385 128.993C381.679 128.669 380.843 128.98 380.52 129.686C380.196 130.393 380.506 131.228 381.213 131.552L387.132 134.263L385.374 138.102L382.654 136.857C381.948 136.533 381.112 136.844 380.788 137.55C380.465 138.257 380.775 139.093 381.482 139.416L384.202 140.662L382.443 144.501L376.524 141.79C375.817 141.467 374.982 141.777 374.658 142.484C374.334 143.191 374.645 144.026 375.352 144.35L381.271 147.06L379.88 150.097L367.402 144.382L380.516 115.751L392.993 121.466L391.235 125.305Z" fill="url(#paint3_linear_77_5344)"></path>
</g>
<g opacity="0.1" clip-path="url(#clip1_77_5344)">
<path d="M1603.85 235.868C1603.52 235.674 1603.12 235.622 1602.75 235.722C1602.37 235.822 1602.06 236.067 1601.86 236.401L1595.3 247.768C1594.72 248.773 1593.76 249.506 1592.64 249.806C1591.52 250.107 1590.33 249.95 1589.32 249.369L1561.54 233.328C1560.53 232.748 1559.8 231.792 1559.5 230.671C1559.2 229.55 1559.36 228.356 1559.94 227.351L1583.27 186.937C1583.85 185.932 1584.81 185.199 1585.93 184.898C1587.05 184.598 1588.24 184.755 1589.25 185.336L1617.03 201.377C1617.9 201.869 1618.56 202.642 1618.93 203.568C1619.29 204.493 1619.32 205.515 1619.02 206.462C1618.9 206.831 1618.94 207.231 1619.12 207.574C1619.3 207.917 1619.61 208.174 1619.98 208.289C1620.35 208.405 1620.75 208.369 1621.09 208.189C1621.43 208.01 1621.69 207.701 1621.8 207.332C1622.31 205.753 1622.25 204.049 1621.65 202.506C1621.04 200.962 1619.93 199.672 1618.49 198.851L1590.71 182.81C1589.03 181.845 1587.04 181.584 1585.17 182.085C1583.31 182.585 1581.71 183.806 1580.74 185.479L1557.41 225.893C1556.45 227.568 1556.19 229.558 1556.69 231.425C1557.19 233.292 1558.41 234.885 1560.08 235.854L1587.87 251.895C1589.54 252.86 1591.53 253.121 1593.4 252.62C1595.26 252.12 1596.86 250.899 1597.83 249.226L1604.39 237.86C1604.58 237.525 1604.63 237.127 1604.53 236.753C1604.43 236.38 1604.19 236.061 1603.85 235.868Z" fill="url(#paint4_linear_77_5344)"></path>
<path d="M1624.96 215.358L1624.23 214.095C1623.94 213.597 1623.56 213.16 1623.1 212.811C1622.65 212.461 1622.13 212.204 1621.57 212.055C1621.01 211.907 1620.44 211.869 1619.87 211.944C1619.3 212.02 1618.75 212.207 1618.25 212.495L1588.84 229.477C1587.86 230.043 1587.02 230.829 1586.4 231.773L1584.27 234.999C1583.97 235.451 1583.8 235.978 1583.78 236.52C1583.77 237.061 1583.9 237.597 1584.17 238.066C1584.45 238.536 1584.84 238.92 1585.32 239.177C1585.8 239.434 1586.34 239.552 1586.88 239.519L1590.73 239.289C1591.86 239.219 1592.96 238.889 1593.94 238.324L1623.36 221.336C1623.86 221.048 1624.29 220.665 1624.64 220.209C1624.99 219.753 1625.25 219.233 1625.4 218.678C1625.55 218.123 1625.58 217.544 1625.51 216.974C1625.43 216.405 1625.25 215.855 1624.96 215.358ZM1592.48 235.791C1591.89 236.129 1591.23 236.325 1590.56 236.365L1586.71 236.595L1588.83 233.375C1589.21 232.809 1589.71 232.339 1590.3 232L1614.66 217.932L1616.85 221.723L1592.48 235.791ZM1621.9 218.808L1619.37 220.266L1617.18 216.476L1619.71 215.018C1619.87 214.922 1620.06 214.859 1620.25 214.834C1620.44 214.809 1620.63 214.822 1620.82 214.871C1621 214.921 1621.17 215.006 1621.33 215.123C1621.48 215.24 1621.61 215.385 1621.7 215.551L1622.43 216.814C1622.53 216.98 1622.59 217.163 1622.62 217.353C1622.64 217.543 1622.63 217.737 1622.58 217.922C1622.53 218.107 1622.44 218.281 1622.33 218.433C1622.21 218.585 1622.06 218.712 1621.9 218.808ZM1611.93 210.218C1612.12 209.883 1612.17 209.485 1612.07 209.111C1611.97 208.738 1611.73 208.419 1611.39 208.226L1591.19 196.559C1590.85 196.366 1590.45 196.313 1590.08 196.413C1589.71 196.514 1589.39 196.758 1589.19 197.093C1589 197.428 1588.95 197.826 1589.05 198.199C1589.15 198.573 1589.39 198.892 1589.73 199.085L1609.94 210.752C1610.27 210.945 1610.67 210.997 1611.04 210.897C1611.42 210.797 1611.73 210.553 1611.93 210.218ZM1605.19 216.432C1605.38 216.097 1605.44 215.699 1605.34 215.325C1605.24 214.952 1604.99 214.633 1604.66 214.44L1583.02 201.949C1582.69 201.756 1582.29 201.704 1581.92 201.804C1581.54 201.904 1581.22 202.148 1581.03 202.483C1580.84 202.818 1580.79 203.216 1580.89 203.59C1580.99 203.963 1581.23 204.282 1581.56 204.475L1603.2 216.966C1603.53 217.159 1603.93 217.212 1604.31 217.112C1604.68 217.011 1605 216.767 1605.19 216.432ZM1596.45 221.487C1596.64 221.152 1596.69 220.754 1596.59 220.38C1596.49 220.007 1596.25 219.688 1595.91 219.495L1578.65 209.527C1578.31 209.334 1577.92 209.281 1577.54 209.381C1577.17 209.481 1576.85 209.726 1576.66 210.061C1576.46 210.396 1576.41 210.794 1576.51 211.167C1576.61 211.541 1576.85 211.86 1577.19 212.053L1594.45 222.021C1594.79 222.214 1595.19 222.266 1595.56 222.166C1595.93 222.066 1596.25 221.822 1596.45 221.487ZM1587.7 226.542C1587.9 226.207 1587.95 225.809 1587.85 225.435C1587.75 225.061 1587.5 224.743 1587.17 224.55L1574.27 217.105C1573.94 216.911 1573.54 216.859 1573.17 216.959C1572.79 217.059 1572.47 217.304 1572.28 217.639C1572.09 217.973 1572.04 218.372 1572.14 218.745C1572.24 219.119 1572.48 219.437 1572.81 219.631L1585.71 227.075C1586.04 227.269 1586.44 227.321 1586.82 227.221C1587.19 227.121 1587.51 226.877 1587.7 226.542ZM1569.9 224.682C1569.56 224.489 1569.17 224.437 1568.79 224.537C1568.42 224.637 1568.1 224.881 1567.91 225.216C1567.71 225.551 1567.66 225.949 1567.76 226.323C1567.86 226.696 1568.1 227.015 1568.44 227.208L1579.91 233.829C1580.24 234.023 1580.64 234.075 1581.01 233.975C1581.39 233.875 1581.71 233.63 1581.9 233.295C1582.09 232.96 1582.15 232.562 1582.05 232.189C1581.95 231.815 1581.7 231.497 1581.37 231.303L1569.9 224.682Z" fill="url(#paint5_linear_77_5344)"></path>
</g>
<g opacity="0.1" clip-path="url(#clip2_77_5344)">
<path d="M1317.07 32.9324L1315.94 33.2377L1315.64 32.1116C1315.39 31.2157 1314.8 30.453 1314 29.9912C1313.19 29.5295 1312.24 29.4065 1311.34 29.6494L1300.02 32.719C1298.74 29.2441 1296.24 26.3492 1293 24.5665C1289.75 22.7839 1285.97 22.2333 1282.35 23.0161C1278.52 23.8915 1275.19 26.2164 1273.05 29.5009C1270.91 32.7854 1270.12 36.7732 1270.86 40.6241L1259.55 43.6922C1258.65 43.935 1257.89 44.5239 1257.43 45.3292C1256.96 46.1344 1256.84 47.0901 1257.08 47.986L1257.39 49.1121L1256.26 49.4173C1255.37 49.6602 1254.6 50.2491 1254.14 51.0543C1253.68 51.8596 1253.56 52.8153 1253.8 53.7112L1264.18 91.9958C1264.42 92.8918 1265.01 93.6545 1265.82 94.1162C1266.62 94.578 1267.58 94.701 1268.47 94.4581L1292.5 87.9431C1293.33 89.1361 1294.5 90.0444 1295.86 90.543C1297.22 91.0415 1298.7 91.1056 1300.1 90.7265C1301.5 90.3474 1302.74 89.5437 1303.67 88.4263C1304.59 87.3089 1305.14 85.9329 1305.25 84.488L1329.28 77.9731C1330.17 77.7302 1330.94 77.1414 1331.4 76.3361C1331.86 75.5308 1331.98 74.5751 1331.74 73.6792L1321.36 35.3946C1321.12 34.4987 1320.53 33.7359 1319.72 33.2742C1318.92 32.8124 1317.96 32.6895 1317.07 32.9324ZM1313.38 32.7222L1323.76 71.0068C1323.84 71.3054 1323.8 71.624 1323.65 71.8924C1323.5 72.1609 1323.24 72.3571 1322.94 72.4381L1301.55 78.2384C1300.33 78.568 1299.25 79.2846 1298.48 80.2802L1293.9 63.3899L1294.33 63.2724C1295.09 63.0694 1295.77 62.6585 1296.31 62.0861C1296.84 61.5137 1297.21 60.8028 1297.36 60.034L1297.89 57.373C1298.48 57.0654 1298.97 56.5954 1299.3 56.0184C1299.64 55.4415 1299.79 54.7819 1299.76 54.1177C1299.73 53.4535 1299.51 52.8124 1299.12 52.2705C1298.74 51.7285 1298.2 51.3083 1297.59 51.0597C1297.67 50.7462 1297.69 50.422 1297.67 50.0998C1297.52 48.5662 1297.88 47.0271 1298.69 45.7139C1300.64 42.4957 1301.34 38.6685 1300.64 34.9673L1311.95 31.9014C1312.25 31.8205 1312.57 31.8615 1312.84 32.0154C1313.11 32.1693 1313.3 32.4235 1313.38 32.7222ZM1283.88 57.6448C1283.8 57.3461 1283.84 57.0275 1283.99 56.7591C1284.15 56.4907 1284.4 56.2944 1284.7 56.2135L1295.96 53.1607C1296.26 53.0797 1296.58 53.1207 1296.84 53.2746C1297.11 53.4285 1297.31 53.6828 1297.39 53.9814C1297.47 54.2801 1297.43 54.5986 1297.28 54.8671C1297.12 55.1355 1296.87 55.3318 1296.57 55.4127L1285.31 58.4655C1285.01 58.5465 1284.69 58.5055 1284.42 58.3516C1284.16 58.1976 1283.96 57.9434 1283.88 57.6448ZM1288.57 52.7467C1287.89 50.4689 1286.89 48.2984 1285.6 46.2989L1290.17 45.0589C1290.07 47.4346 1290.31 49.8127 1290.87 52.1233L1288.57 52.7467ZM1295.35 58.1596L1295.07 59.5767C1295 59.9193 1294.84 60.2362 1294.6 60.4914C1294.36 60.7466 1294.06 60.9299 1293.72 61.0204L1290.6 61.866C1290.26 61.959 1289.91 61.9555 1289.57 61.8557C1289.24 61.756 1288.94 61.564 1288.7 61.3018L1287.74 60.2236L1295.35 58.1596ZM1274.74 31.1973C1276.43 28.3475 1279.18 26.2725 1282.38 25.4143C1282.54 25.3703 1282.7 25.3263 1282.87 25.2911C1286.05 24.5987 1289.37 25.1243 1292.19 26.7642C1295 28.404 1297.09 31.0389 1298.06 34.1482C1298.56 35.8732 1298.7 37.6849 1298.47 39.4673C1298.23 41.2497 1297.63 42.9635 1296.7 44.4992C1295.63 46.237 1295.15 48.2747 1295.34 50.3057C1295.35 50.4828 1295.29 50.6557 1295.18 50.7954C1295.07 50.935 1294.92 51.0328 1294.74 51.0723L1293.12 51.5131C1291.84 45.9233 1292.88 42.6074 1292.89 42.5713C1292.99 42.2776 1292.96 41.9572 1292.82 41.6804C1292.69 41.4037 1292.44 41.1934 1292.15 41.0957C1291.86 40.9981 1291.54 41.0211 1291.26 41.1597C1290.98 41.2983 1290.77 41.5411 1290.67 41.8348C1290.66 41.8747 1290.58 42.127 1290.49 42.5559L1284.06 44.2978C1283.9 44.1134 1283.72 43.9369 1283.54 43.7691C1283.31 43.5666 1283 43.4645 1282.7 43.4852C1282.39 43.5058 1282.1 43.6476 1281.9 43.8793C1281.69 44.1111 1281.59 44.4141 1281.61 44.722C1281.63 45.0298 1281.77 45.3176 1282 45.5222C1282.03 45.5474 1284.6 47.8864 1286.32 53.357L1284.69 53.7978C1284.52 53.8505 1284.34 53.8421 1284.17 53.774C1284 53.7059 1283.87 53.5823 1283.78 53.4244C1282.95 51.6038 1281.54 50.1053 1279.78 49.1565C1278.23 48.3436 1276.87 47.2242 1275.77 45.8667C1274.67 44.5092 1273.86 42.942 1273.39 41.2611C1272.92 39.5801 1272.8 37.8207 1273.03 36.0903C1273.26 34.36 1273.84 32.695 1274.74 31.1973ZM1259.34 47.3755C1259.25 47.0768 1259.3 46.7583 1259.45 46.4899C1259.6 46.2214 1259.86 46.0252 1260.16 45.9442L1271.48 42.8755C1272.75 46.4593 1275.32 49.4353 1278.69 51.2183C1280 51.9313 1281.05 53.0546 1281.67 54.4178C1281.82 54.7151 1282.01 54.9869 1282.24 55.2223C1281.83 55.7485 1281.58 56.3802 1281.52 57.0427C1281.46 57.7053 1281.6 58.3709 1281.9 58.9608C1282.21 59.5507 1282.68 60.0403 1283.26 60.3715C1283.83 60.7027 1284.49 60.8617 1285.16 60.8297L1286.96 62.8523C1287.48 63.4392 1288.16 63.8689 1288.91 64.0926C1289.66 64.3163 1290.46 64.3251 1291.21 64.118L1291.64 64.0005L1296.22 80.8908C1295.05 80.4224 1293.76 80.3486 1292.54 80.6806L1271.15 86.4809C1270.85 86.5618 1270.53 86.5208 1270.26 86.3669C1269.99 86.213 1269.8 85.9587 1269.72 85.6601L1259.34 47.3755ZM1329.49 74.2898C1329.57 74.5884 1329.53 74.907 1329.38 75.1754C1329.22 75.4438 1328.97 75.6401 1328.67 75.7211L1303.78 82.4677C1303.52 82.538 1303.3 82.6959 1303.14 82.9145C1302.98 83.1332 1302.91 83.3993 1302.92 83.6677C1302.99 84.7419 1302.69 85.8071 1302.06 86.6827C1301.44 87.5583 1300.53 88.1905 1299.49 88.4721C1298.45 88.7538 1297.34 88.6676 1296.36 88.2282C1295.38 87.7888 1294.58 87.0232 1294.1 86.061C1293.98 85.8208 1293.78 85.6297 1293.53 85.52C1293.28 85.4104 1293.01 85.389 1292.75 85.4594L1267.86 92.206C1267.56 92.287 1267.25 92.246 1266.98 92.0921C1266.71 91.9382 1266.51 91.6839 1266.43 91.3853L1256.05 53.1007C1255.97 52.802 1256.01 52.4835 1256.17 52.215C1256.32 51.9466 1256.57 51.7503 1256.87 51.6694L1258 51.3641L1267.46 86.2707C1267.71 87.1666 1268.29 87.9293 1269.1 88.3911C1269.91 88.8528 1270.86 88.9758 1271.76 88.7329L1293.15 82.9326C1293.88 82.7408 1294.65 82.7856 1295.34 83.0603C1296.04 83.335 1296.64 83.8254 1297.04 84.4602C1297.2 84.7071 1297.43 84.896 1297.71 84.9996C1297.98 85.1032 1298.29 85.1159 1298.57 85.036C1298.85 84.9561 1299.11 84.7877 1299.29 84.5553C1299.47 84.3229 1299.57 84.0387 1299.58 83.744C1299.61 82.9981 1299.87 82.281 1300.34 81.6961C1300.8 81.1112 1301.44 80.689 1302.16 80.4904L1323.55 74.6901C1324.45 74.4472 1325.21 73.8584 1325.67 73.0531C1326.14 72.2479 1326.26 71.2922 1326.02 70.3963L1316.55 35.4897L1317.68 35.1844C1317.98 35.1034 1318.3 35.1444 1318.56 35.2983C1318.83 35.4523 1319.03 35.7065 1319.11 36.0052L1329.49 74.2898Z" fill="url(#paint6_linear_77_5344)"></path>
<path d="M1265.67 52.9103L1271.3 51.3839C1271.6 51.3029 1271.85 51.1066 1272.01 50.8382C1272.16 50.5698 1272.2 50.2512 1272.12 49.9526C1272.04 49.6539 1271.84 49.3997 1271.58 49.2458C1271.31 49.0919 1270.99 49.0509 1270.69 49.1318L1265.06 50.6582C1264.76 50.7392 1264.51 50.9355 1264.35 51.2039C1264.2 51.4723 1264.16 51.7909 1264.24 52.0895C1264.32 52.3882 1264.52 52.6424 1264.79 52.7963C1265.05 52.9502 1265.37 52.9912 1265.67 52.9103ZM1267.5 59.6664L1276.51 57.2242C1276.81 57.1432 1277.06 56.9469 1277.22 56.6785C1277.37 56.4101 1277.41 56.0915 1277.33 55.7929C1277.25 55.4942 1277.05 55.24 1276.79 55.0861C1276.52 54.9321 1276.2 54.8912 1275.9 54.9721L1266.89 57.4143C1266.59 57.4953 1266.34 57.6916 1266.19 57.96C1266.03 58.2284 1265.99 58.547 1266.07 58.8456C1266.15 59.1443 1266.35 59.3985 1266.62 59.5524C1266.89 59.7064 1267.2 59.7473 1267.5 59.6664ZM1269.33 66.4225L1279.47 63.675C1279.77 63.594 1280.02 63.3977 1280.18 63.1293C1280.33 62.8609 1280.37 62.5423 1280.29 62.2437C1280.21 61.9451 1280.01 61.6908 1279.74 61.5369C1279.48 61.383 1279.16 61.342 1278.86 61.4229L1268.72 64.1704C1268.43 64.2514 1268.17 64.4477 1268.02 64.7161C1267.86 64.9845 1267.82 65.3031 1267.9 65.6017C1267.98 65.9004 1268.18 66.1546 1268.45 66.3085C1268.72 66.4625 1269.04 66.5034 1269.33 66.4225ZM1305.08 42.2256L1310.71 40.6992C1311.01 40.6182 1311.26 40.4219 1311.42 40.1535C1311.57 39.8851 1311.61 39.5665 1311.53 39.2679C1311.45 38.9692 1311.26 38.715 1310.99 38.5611C1310.72 38.4072 1310.4 38.3662 1310.1 38.4471L1304.47 39.9735C1304.17 40.0545 1303.92 40.2508 1303.76 40.5192C1303.61 40.7876 1303.57 41.1062 1303.65 41.4048C1303.73 41.7035 1303.93 41.9577 1304.2 42.1116C1304.46 42.2655 1304.78 42.3065 1305.08 42.2256ZM1311.93 45.2032L1302.92 47.6455C1302.63 47.7264 1302.37 47.9227 1302.22 48.1911C1302.06 48.4596 1302.02 48.7781 1302.1 49.0768C1302.19 49.3754 1302.38 49.6296 1302.65 49.7836C1302.92 49.9375 1303.24 49.9785 1303.54 49.8975L1312.54 47.4553C1312.84 47.3743 1313.1 47.178 1313.25 46.9096C1313.4 46.6412 1313.45 46.3226 1313.36 46.024C1313.28 45.7254 1313.09 45.4711 1312.82 45.3172C1312.55 45.1633 1312.23 45.1223 1311.93 45.2032ZM1313.76 51.9594L1303.63 54.7069C1303.33 54.7878 1303.08 54.9841 1302.92 55.2525C1302.77 55.5209 1302.73 55.8395 1302.81 56.1381C1302.89 56.4368 1303.09 56.691 1303.36 56.845C1303.62 56.9989 1303.94 57.0399 1304.24 56.9589L1314.38 54.2114C1314.67 54.1304 1314.93 53.9341 1315.08 53.6657C1315.24 53.3973 1315.28 53.0787 1315.2 52.7801C1315.11 52.4815 1314.92 52.2272 1314.65 52.0733C1314.38 51.9194 1314.06 51.8784 1313.76 51.9594ZM1271.17 73.1786L1288.06 68.5994C1288.36 68.5185 1288.61 68.3222 1288.76 68.0538C1288.92 67.7853 1288.96 67.4668 1288.88 67.1681C1288.8 66.8695 1288.6 66.6153 1288.33 66.4613C1288.06 66.3074 1287.74 66.2664 1287.45 66.3474L1270.56 70.9266C1270.26 71.0075 1270 71.2038 1269.85 71.4722C1269.69 71.7406 1269.65 72.0592 1269.73 72.3578C1269.82 72.6565 1270.01 72.9107 1270.28 73.0647C1270.55 73.2186 1270.87 73.2596 1271.17 73.1786ZM1273 79.9347L1286.51 76.2714C1286.81 76.1904 1287.06 75.9941 1287.22 75.7257C1287.37 75.4573 1287.41 75.1387 1287.33 74.8401C1287.25 74.5414 1287.05 74.2872 1286.79 74.1333C1286.52 73.9794 1286.2 73.9384 1285.9 74.0193L1272.39 77.6827C1272.09 77.7636 1271.83 77.9599 1271.68 78.2283C1271.53 78.4967 1271.49 78.8153 1271.57 79.114C1271.65 79.4126 1271.84 79.6668 1272.11 79.8208C1272.38 79.9747 1272.7 80.0157 1273 79.9347ZM1315.6 58.7155L1298.71 63.2946C1298.41 63.3756 1298.15 63.5719 1298 63.8403C1297.85 64.1087 1297.8 64.4273 1297.89 64.7259C1297.97 65.0246 1298.16 65.2788 1298.43 65.4327C1298.7 65.5866 1299.02 65.6276 1299.32 65.5467L1316.21 60.9675C1316.51 60.8865 1316.76 60.6903 1316.91 60.4218C1317.07 60.1534 1317.11 59.8348 1317.03 59.5362C1316.95 59.2376 1316.75 58.9833 1316.48 58.8294C1316.21 58.6755 1315.89 58.6345 1315.6 58.7155ZM1314.05 66.3874L1300.54 70.0507C1300.24 70.1317 1299.98 70.328 1299.83 70.5964C1299.68 70.8648 1299.64 71.1834 1299.72 71.482C1299.8 71.7807 1299.99 72.0349 1300.26 72.1888C1300.53 72.3428 1300.85 72.3837 1301.15 72.3028L1314.66 68.6394C1314.96 68.5585 1315.21 68.3622 1315.37 68.0938C1315.52 67.8254 1315.56 67.5068 1315.48 67.2081C1315.4 66.9095 1315.2 66.6553 1314.94 66.5013C1314.67 66.3474 1314.35 66.3064 1314.05 66.3874Z" fill="url(#paint7_linear_77_5344)"></path>
</g>
<defs>
<linearGradient id="paint0_linear_77_5344" x1="960" y1="0" x2="960" y2="286" gradientUnits="userSpaceOnUse">
<stop stop-color="#4E17A8"></stop>
<stop offset="1" stop-color="#341C6E"></stop>
</linearGradient>

<linearGradient id="paint3_linear_77_5344" x1="358.807" y1="120.195" x2="383.197" y2="185.808" gradientUnits="userSpaceOnUse">
<stop stop-color="#C3501A"></stop>
<stop offset="1" stop-color="#FF610F"></stop>
</linearGradient>
<linearGradient id="paint4_linear_77_5344" x1="1604.6" y1="190.83" x2="1573.97" y2="243.875" gradientUnits="userSpaceOnUse">
<stop stop-color="#C3501A"></stop>
<stop offset="1" stop-color="#FF610F"></stop>
</linearGradient>
<linearGradient id="paint5_linear_77_5344" x1="1607.3" y1="203.646" x2="1586.42" y2="239.815" gradientUnits="userSpaceOnUse">
<stop stop-color="#C3501A"></stop>
<stop offset="1" stop-color="#FF610F"></stop>
</linearGradient>
<linearGradient id="paint6_linear_77_5344" x1="1281.78" y1="23.1572" x2="1300.1" y2="90.7265" gradientUnits="userSpaceOnUse">
<stop stop-color="#C3501A"></stop>
<stop offset="1" stop-color="#FF610F"></stop>
</linearGradient>
<linearGradient id="paint7_linear_77_5344" x1="1287.58" y1="44.5527" x2="1295.52" y2="73.8292" gradientUnits="userSpaceOnUse">
<stop stop-color="#C3501A"></stop>
<stop offset="1" stop-color="#FF610F"></stop>
</linearGradient>
<clipPath id="clip0_77_5344">
<rect width="70" height="70" fill="white" transform="translate(326 132.391) rotate(-20.3917)"></rect>
</clipPath>
<clipPath id="clip1_77_5344">
<rect width="70" height="70" fill="white" transform="translate(1579 171) rotate(30)"></rect>
</clipPath>
<clipPath id="clip2_77_5344">
<rect width="70" height="70" fill="white" transform="translate(1248 32.3167) rotate(-15.1689)"></rect>
</clipPath>
</defs>
</svg>