<svg width="30" height="26" viewBox="0 0 30 26" fill="none" xmlns="http://www.w3.org/2000/svg">
<path fill-rule="evenodd" clip-rule="evenodd" d="M13.0071 26.0054C5.83323 26.0054 0.00195312 20.1734 0.00195312 13.0003C0.00195312 5.82709 5.83323 -0.00488281 13.0071 -0.00488281C16.6183 -0.00488281 19.9851 1.4346 22.4744 4.06926C22.5284 4.12364 22.5611 4.19547 22.5668 4.27183C22.5725 4.34819 22.5508 4.42408 22.5056 4.48588L23.2689 5.48382C23.4143 5.40908 23.6039 5.425 23.7188 5.60701C25.2316 7.77799 26.0122 10.3407 26.0122 12.9996C26.0122 20.1734 20.181 26.0054 13.0071 26.0054ZM13.0071 23.3209C7.32185 23.3209 2.68575 18.6848 2.68575 13.0003C2.68575 7.3157 7.32185 2.67822 13.0071 2.67822C15.7151 2.67822 18.2771 3.72738 20.2045 5.60563C20.2368 5.63366 20.2632 5.6678 20.2822 5.70609C20.3012 5.74438 20.3124 5.78605 20.3153 5.8287C20.3181 5.87136 20.3125 5.91415 20.2987 5.95461C20.2849 5.99508 20.2632 6.03241 20.2349 6.06446L21.2011 7.2638C21.3485 7.17729 21.5526 7.18559 21.6689 7.36276C26.0551 14.0383 21.2952 23.3209 13.0071 23.3209Z" fill="#7F7B7B"/>
<path fill-rule="evenodd" clip-rule="evenodd" d="M13.3485 19.6855C13.2798 19.6845 13.213 19.6631 13.1564 19.624C13.0999 19.585 13.0562 19.53 13.0309 19.4662C13.0066 19.4177 10.9083 14.0003 7.66327 11.9504C7.02866 11.5601 6.54075 11.1456 6.73592 10.2182C6.93108 9.31575 7.54078 8.80294 8.63907 8.55933C10.5907 8.1441 12.6897 11.1698 13.4696 12.4141C16.2033 8.43753 21.6684 2.19102 29.6229 1.45882C30.0063 1.41384 30.1489 1.98271 29.7939 2.14188C29.6721 2.19033 18.3016 7.38768 13.6897 19.4904C13.6552 19.5502 13.6055 19.5998 13.5455 19.6341C13.4856 19.6684 13.4176 19.6862 13.3485 19.6855Z" fill="url(#paint0_linear_77_6487)"/>
<defs>
<linearGradient id="paint0_linear_77_6487" x1="18.3449" y1="1.4563" x2="18.3449" y2="19.6856" gradientUnits="userSpaceOnUse">
<stop stop-color="#C3501A"/>
<stop offset="1" stop-color="#FF610F"/>
</linearGradient>
</defs>
</svg>
