<svg width="319" height="133" viewBox="0 0 319 133" fill="none" xmlns="http://www.w3.org/2000/svg">
<g opacity="0.1">
<path d="M185.096 90.2217V126C185.096 129.313 187.782 132 191.096 132H284.231" stroke="#686868" stroke-width="1.79" stroke-linecap="round"/>
<path d="M199.693 71.5688L268.9 70.6307" stroke="#686868" stroke-width="1.79" stroke-linecap="round"/>
<path d="M177.797 47.0272H225.135C228.449 47.0272 231.135 44.3409 231.135 41.0272V19.9822C231.135 16.6685 233.821 13.9822 237.135 13.9822H317.288" stroke="#686868" stroke-width="1.79" stroke-linecap="round"/>
<path d="M190.367 101.315H286.603C289.862 101.315 292.504 98.6735 292.504 95.4146V95.4146C292.504 92.1556 295.146 89.5137 298.405 89.5137H317.288" stroke="#686868" stroke-width="1.79" stroke-linecap="round"/>
<path d="M55.2891 50.5679H76.4332C79.7469 50.5679 82.4332 53.2542 82.4332 56.5679V57.5498C82.4332 60.8635 85.1195 63.5498 88.4332 63.5498H122.559" stroke="#686868" stroke-width="1.79" stroke-linecap="round"/>
<path d="M2.17969 1H57.549C60.8627 1 63.549 3.68629 63.549 7V7.98197C63.549 11.2957 66.2353 13.982 69.549 13.982H124.819C128.133 13.982 130.819 16.6683 130.819 19.982V52.916" stroke="#686868" stroke-width="1.79" stroke-linecap="round"/>
<path d="M144.982 103V126C144.982 129.314 142.295 132 138.982 132H62.3691" stroke="#686868" stroke-width="1.79" stroke-linecap="round"/>
<path d="M138.464 100.135H66.009C62.6953 100.135 60.009 102.822 60.009 106.135V111.838C60.009 115.152 57.3227 117.838 54.009 117.838H1" stroke="#686868" stroke-width="1.79" stroke-linecap="round"/>
</g>
</svg>
