<svg width="1446" height="212" viewBox="0 0 1446 212" fill="none" xmlns="http://www.w3.org/2000/svg">
<path opacity="0.04" d="M0.0160012 208V0.889982H77.3C91.3853 0.889982 103.803 3.48465 114.552 8.674C125.487 13.678 134.012 21.0913 140.128 30.914C146.244 40.5513 149.302 52.32 149.302 66.22C149.302 79.9347 146.151 91.7033 139.85 101.526C133.734 111.163 125.301 118.577 114.552 123.766C103.803 128.955 91.3853 131.55 77.3 131.55H37.824V208H0.0160012ZM37.824 98.19H77.856C84.7133 98.19 90.644 96.8927 95.648 94.298C100.652 91.518 104.544 87.7187 107.324 82.9C110.104 78.0813 111.494 72.5213 111.494 66.22C111.494 59.7333 110.104 54.1733 107.324 49.54C104.544 44.7213 100.652 41.0147 95.648 38.42C90.644 35.64 84.7133 34.25 77.856 34.25H37.824V98.19ZM177.224 208V56.768H211.418V91.796L207.526 85.958C210.306 75.0233 215.866 66.8687 224.206 61.494C232.546 56.1193 242.368 53.432 253.674 53.432C266.091 53.432 277.026 56.6753 286.478 63.162C295.93 69.6487 302.046 78.174 304.826 88.738L294.54 89.572C299.173 77.5253 306.123 68.5367 315.39 62.606C324.656 56.49 335.313 53.432 347.36 53.432C358.109 53.432 367.654 55.8413 375.994 60.66C384.519 65.4787 391.191 72.2433 396.01 80.954C400.828 89.4793 403.238 99.3947 403.238 110.7V208H366.82V119.318C366.82 112.646 365.615 106.901 363.206 102.082C360.796 97.2633 357.46 93.5567 353.198 90.962C348.935 88.182 343.746 86.792 337.63 86.792C331.884 86.792 326.788 88.182 322.34 90.962C317.892 93.5567 314.463 97.2633 312.054 102.082C309.644 106.901 308.44 112.646 308.44 119.318V208H272.022V119.318C272.022 112.646 270.817 106.901 268.408 102.082C265.998 97.2633 262.57 93.5567 258.122 90.962C253.859 88.182 248.762 86.792 242.832 86.792C237.086 86.792 231.99 88.182 227.542 90.962C223.094 93.5567 219.665 97.2633 217.256 102.082C214.846 106.901 213.642 112.646 213.642 119.318V208H177.224ZM486.516 208V0.889982H522.656L600.218 106.252H582.982L658.876 0.889982H695.016V208H656.93V43.98L671.664 47.594L592.99 152.4H588.542L511.814 47.594L524.324 43.98V208H486.516ZM803.319 211.336C787.751 211.336 774.129 207.815 762.453 200.772C750.777 193.729 741.695 184.185 735.209 172.138C728.722 160.091 725.479 146.747 725.479 132.106C725.479 116.909 728.722 103.472 735.209 91.796C741.881 79.9347 750.869 70.5753 762.175 63.718C773.665 56.8607 786.453 53.432 800.539 53.432C812.4 53.432 822.779 55.378 831.675 59.27C840.756 63.162 848.447 68.5367 854.749 75.394C861.05 82.2513 865.869 90.128 869.205 99.024C872.541 107.735 874.209 117.187 874.209 127.38C874.209 129.975 874.023 132.662 873.653 135.442C873.467 138.222 873.004 140.631 872.263 142.67H755.503V114.87H851.691L834.455 127.936C836.123 119.411 835.659 111.812 833.065 105.14C830.655 98.468 826.578 93.186 820.833 89.294C815.273 85.402 808.508 83.456 800.539 83.456C792.94 83.456 786.175 85.402 780.245 89.294C774.314 93.0007 769.773 98.5607 766.623 105.974C763.657 113.202 762.545 122.005 763.287 132.384C762.545 141.651 763.75 149.898 766.901 157.126C770.237 164.169 775.055 169.636 781.357 173.528C787.843 177.42 795.257 179.366 803.597 179.366C811.937 179.366 818.979 177.605 824.725 174.084C830.655 170.563 835.289 165.837 838.625 159.906L868.093 174.362C865.127 181.59 860.494 187.984 854.193 193.544C847.891 199.104 840.385 203.459 831.675 206.61C823.149 209.761 813.697 211.336 803.319 211.336ZM901.815 208V56.768H936.009V86.514L933.229 81.232C936.751 72.1507 942.496 65.2933 950.465 60.66C958.62 55.8413 968.072 53.432 978.821 53.432C989.941 53.432 999.764 55.8413 1008.29 60.66C1017 65.4787 1023.76 72.2433 1028.58 80.954C1033.4 89.4793 1035.81 99.3947 1035.81 110.7V208H999.393V119.318C999.393 112.646 998.096 106.901 995.501 102.082C992.907 97.2633 989.293 93.5567 984.659 90.962C980.211 88.182 974.929 86.792 968.813 86.792C962.883 86.792 957.601 88.182 952.967 90.962C948.334 93.5567 944.72 97.2633 942.125 102.082C939.531 106.901 938.233 112.646 938.233 119.318V208H901.815ZM1135.55 209.668C1118.5 209.668 1105.25 205.035 1095.8 195.768C1086.53 186.316 1081.9 173.065 1081.9 156.014V89.294H1055.76V56.768H1058.54C1065.96 56.768 1071.7 54.822 1075.78 50.93C1079.86 47.038 1081.9 41.3853 1081.9 33.972V22.296H1118.31V56.768H1153.06V89.294H1118.31V154.068C1118.31 159.072 1119.15 163.335 1120.82 166.856C1122.67 170.377 1125.45 173.065 1129.16 174.918C1133.05 176.771 1137.96 177.698 1143.89 177.698C1145.19 177.698 1146.67 177.605 1148.34 177.42C1150.19 177.235 1151.95 177.049 1153.62 176.864V208C1151.03 208.371 1148.06 208.741 1144.72 209.112C1141.39 209.483 1138.33 209.668 1135.55 209.668ZM1254.03 211.336C1239.21 211.336 1225.68 207.907 1213.45 201.05C1201.4 194.193 1191.76 184.833 1184.53 172.972C1177.49 161.111 1173.97 147.581 1173.97 132.384C1173.97 117.187 1177.49 103.657 1184.53 91.796C1191.76 79.9347 1201.4 70.5753 1213.45 63.718C1225.49 56.8607 1239.02 53.432 1254.03 53.432C1268.86 53.432 1282.3 56.8607 1294.34 63.718C1306.39 70.5753 1315.94 79.9347 1322.98 91.796C1330.21 103.472 1333.82 117.001 1333.82 132.384C1333.82 147.581 1330.21 161.111 1322.98 172.972C1315.75 184.833 1306.11 194.193 1294.07 201.05C1282.02 207.907 1268.68 211.336 1254.03 211.336ZM1254.03 177.976C1262.19 177.976 1269.32 176.03 1275.44 172.138C1281.74 168.246 1286.65 162.871 1290.17 156.014C1293.88 148.971 1295.73 141.095 1295.73 132.384C1295.73 123.488 1293.88 115.704 1290.17 109.032C1286.65 102.175 1281.74 96.8 1275.44 92.908C1269.32 88.8307 1262.19 86.792 1254.03 86.792C1245.69 86.792 1238.37 88.8307 1232.07 92.908C1225.77 96.8 1220.77 102.175 1217.06 109.032C1213.54 115.704 1211.78 123.488 1211.78 132.384C1211.78 141.095 1213.54 148.971 1217.06 156.014C1220.77 162.871 1225.77 168.246 1232.07 172.138C1238.37 176.03 1245.69 177.976 1254.03 177.976ZM1361.44 208V56.768H1395.63V90.406L1392.85 85.402C1396.37 74.0967 1401.84 66.22 1409.25 61.772C1416.85 57.324 1425.93 55.1 1436.5 55.1H1445.39V87.348H1432.33C1421.95 87.348 1413.61 90.5913 1407.31 97.078C1401.01 103.379 1397.86 112.275 1397.86 123.766V208H1361.44Z" fill="white"/>
</svg>
