<svg width="1415" height="111" viewBox="0 0 1415 111" fill="none" xmlns="http://www.w3.org/2000/svg">
<path opacity="0.04" d="M0.584001 203V0.359982H76.2C89.9813 0.359982 102.131 2.89865 112.648 7.976C123.347 12.872 131.688 20.1253 137.672 29.736C143.656 39.1653 146.648 50.68 146.648 64.28C146.648 77.6987 143.565 89.2133 137.4 98.824C131.416 108.253 123.165 115.507 112.648 120.584C102.131 125.661 89.9813 128.2 76.2 128.2H37.576V203H0.584001ZM37.576 95.56H76.744C83.4533 95.56 89.256 94.2907 94.152 91.752C99.048 89.032 102.856 85.3147 105.576 80.6C108.296 75.8853 109.656 70.4453 109.656 64.28C109.656 57.9333 108.296 52.4933 105.576 47.96C102.856 43.2453 99.048 39.6187 94.152 37.08C89.256 34.36 83.4533 33 76.744 33H37.576V95.56ZM173.967 203V55.032H207.423V89.304L203.615 83.592C206.335 72.8933 211.775 64.9147 219.935 59.656C228.095 54.3973 237.706 51.768 248.767 51.768C260.916 51.768 271.615 54.9413 280.863 61.288C290.111 67.6347 296.095 75.976 298.815 86.312L288.751 87.128C293.284 75.3413 300.084 66.5467 309.151 60.744C318.218 54.76 328.644 51.768 340.431 51.768C350.948 51.768 360.287 54.1253 368.447 58.84C376.788 63.5547 383.316 70.1733 388.031 78.696C392.746 87.0373 395.103 96.7387 395.103 107.8V203H359.471V116.232C359.471 109.704 358.292 104.083 355.935 99.368C353.578 94.6533 350.314 91.0267 346.143 88.488C341.972 85.768 336.895 84.408 330.911 84.408C325.29 84.408 320.303 85.768 315.951 88.488C311.599 91.0267 308.244 94.6533 305.887 99.368C303.53 104.083 302.351 109.704 302.351 116.232V203H266.719V116.232C266.719 109.704 265.54 104.083 263.183 99.368C260.826 94.6533 257.471 91.0267 253.119 88.488C248.948 85.768 243.962 84.408 238.159 84.408C232.538 84.408 227.551 85.768 223.199 88.488C218.847 91.0267 215.492 94.6533 213.135 99.368C210.778 104.083 209.599 109.704 209.599 116.232V203H173.967ZM476.584 203V0.359982H511.944L587.832 103.448H570.968L645.224 0.359982H680.584V203H643.32V42.52L657.736 46.056L580.76 148.6H576.408L501.336 46.056L513.576 42.52V203H476.584ZM786.549 206.264C771.317 206.264 757.989 202.819 746.565 195.928C735.141 189.037 726.256 179.699 719.909 167.912C713.563 156.125 710.389 143.069 710.389 128.744C710.389 113.875 713.563 100.728 719.909 89.304C726.437 77.6987 735.232 68.5413 746.293 61.832C757.536 55.1227 770.048 51.768 783.829 51.768C795.435 51.768 805.589 53.672 814.293 57.48C823.179 61.288 830.704 66.5467 836.869 73.256C843.035 79.9653 847.749 87.672 851.013 96.376C854.277 104.899 855.909 114.147 855.909 124.12C855.909 126.659 855.728 129.288 855.365 132.008C855.184 134.728 854.731 137.085 854.005 139.08H739.765V111.88H833.877L817.013 124.664C818.645 116.323 818.192 108.888 815.653 102.36C813.296 95.832 809.307 90.664 803.685 86.856C798.245 83.048 791.627 81.144 783.829 81.144C776.395 81.144 769.776 83.048 763.973 86.856C758.171 90.4827 753.728 95.9227 750.645 103.176C747.744 110.248 746.656 118.861 747.381 129.016C746.656 138.083 747.835 146.152 750.917 153.224C754.181 160.115 758.896 165.464 765.061 169.272C771.408 173.08 778.661 174.984 786.821 174.984C794.981 174.984 801.872 173.261 807.493 169.816C813.296 166.371 817.829 161.747 821.093 155.944L849.925 170.088C847.024 177.16 842.491 183.416 836.325 188.856C830.16 194.296 822.816 198.557 814.293 201.64C805.952 204.723 796.704 206.264 786.549 206.264ZM882.92 203V55.032H916.376V84.136L913.656 78.968C917.101 70.0827 922.723 63.3733 930.52 58.84C938.499 54.1253 947.747 51.768 958.264 51.768C969.144 51.768 978.755 54.1253 987.096 58.84C995.619 63.5547 1002.24 70.1733 1006.95 78.696C1011.67 87.0373 1014.02 96.7387 1014.02 107.8V203H978.392V116.232C978.392 109.704 977.123 104.083 974.584 99.368C972.045 94.6533 968.509 91.0267 963.976 88.488C959.624 85.768 954.456 84.408 948.472 84.408C942.669 84.408 937.501 85.768 932.968 88.488C928.435 91.0267 924.899 94.6533 922.36 99.368C919.821 104.083 918.552 109.704 918.552 116.232V203H882.92ZM1111.61 204.632C1094.93 204.632 1081.96 200.099 1072.71 191.032C1063.65 181.784 1059.11 168.819 1059.11 152.136V86.856H1033.55V55.032H1036.27C1043.52 55.032 1049.14 53.128 1053.13 49.32C1057.12 45.512 1059.11 39.9813 1059.11 32.728V21.304H1094.75V55.032H1128.75V86.856H1094.75V150.232C1094.75 155.128 1095.56 159.299 1097.19 162.744C1099.01 166.189 1101.73 168.819 1105.35 170.632C1109.16 172.445 1113.97 173.352 1119.77 173.352C1121.04 173.352 1122.49 173.261 1124.12 173.08C1125.94 172.899 1127.66 172.717 1129.29 172.536V203C1126.75 203.363 1123.85 203.725 1120.59 204.088C1117.32 204.451 1114.33 204.632 1111.61 204.632ZM1227.54 206.264C1213.03 206.264 1199.79 202.909 1187.83 196.2C1176.04 189.491 1166.61 180.333 1159.54 168.728C1152.65 157.123 1149.2 143.885 1149.2 129.016C1149.2 114.147 1152.65 100.909 1159.54 89.304C1166.61 77.6987 1176.04 68.5413 1187.83 61.832C1199.61 55.1227 1212.85 51.768 1227.54 51.768C1242.04 51.768 1255.19 55.1227 1266.98 61.832C1278.76 68.5413 1288.1 77.6987 1294.99 89.304C1302.07 100.728 1305.6 113.965 1305.6 129.016C1305.6 143.885 1302.07 157.123 1294.99 168.728C1287.92 180.333 1278.49 189.491 1266.71 196.2C1254.92 202.909 1241.86 206.264 1227.54 206.264ZM1227.54 173.624C1235.52 173.624 1242.5 171.72 1248.48 167.912C1254.65 164.104 1259.45 158.845 1262.9 152.136C1266.52 145.245 1268.34 137.539 1268.34 129.016C1268.34 120.312 1266.52 112.696 1262.9 106.168C1259.45 99.4587 1254.65 94.2 1248.48 90.392C1242.5 86.4027 1235.52 84.408 1227.54 84.408C1219.38 84.408 1212.22 86.4027 1206.05 90.392C1199.88 94.2 1194.99 99.4587 1191.36 106.168C1187.92 112.696 1186.19 120.312 1186.19 129.016C1186.19 137.539 1187.92 145.245 1191.36 152.136C1194.99 158.845 1199.88 164.104 1206.05 167.912C1212.22 171.72 1219.38 173.624 1227.54 173.624ZM1332.62 203V55.032H1366.08V87.944L1363.36 83.048C1366.8 71.9867 1372.15 64.28 1379.41 59.928C1386.84 55.576 1395.73 53.4 1406.06 53.4H1414.77V84.952H1401.98C1391.83 84.952 1383.67 88.1253 1377.5 94.472C1371.34 100.637 1368.26 109.341 1368.26 120.584V203H1332.62Z" fill="black"/>
</svg>
