<svg width="1607" height="386" viewBox="0 0 1607 386" fill="none" xmlns="http://www.w3.org/2000/svg">
<rect x="37" y="118" width="1570" height="189" rx="20" fill="url(#paint0_linear_73_3127)"/>
<g opacity="0.3" clip-path="url(#clip0_73_3127)">
<path d="M460.604 160.209L449.863 155.289C449.358 155.058 448.762 155.28 448.53 155.785L438.745 177.15L422.998 169.938C420.89 168.972 418.608 169.756 417.69 171.761L415.72 176.061C414.768 178.14 415.652 180.591 417.691 181.525L433.438 188.738L425.189 206.747C424.958 207.252 425.18 207.848 425.685 208.079L436.425 212.999C436.678 213.114 436.953 213.117 437.194 213.027C437.436 212.937 437.643 212.756 437.758 212.503L446.006 194.494L458.064 200.017C458.069 200.019 458.073 200.019 458.076 200.02C458.211 200.081 458.358 200.111 458.506 200.108L470.96 199.82C471.15 199.816 471.334 199.758 471.492 199.653C471.651 199.548 471.776 199.401 471.854 199.228C471.932 199.055 471.959 198.864 471.933 198.676C471.907 198.488 471.828 198.312 471.706 198.167L463.722 188.696C463.63 188.588 463.517 188.501 463.389 188.44C463.383 188.436 463.378 188.432 463.372 188.43L451.314 182.907L461.099 161.542C461.331 161.037 461.109 160.44 460.604 160.209ZM418.528 179.697C417.515 179.233 417.066 177.951 417.548 176.898L419.518 172.598C419.739 172.116 420.092 171.815 420.498 171.664C421.023 171.469 421.636 171.526 422.16 171.766L426.053 173.549L422.421 181.48L418.528 179.697ZM442.943 196.355L438.715 194.418C438.21 194.187 437.614 194.409 437.382 194.914C437.151 195.419 437.373 196.015 437.878 196.246L442.106 198.183L440.85 200.925L438.907 200.036C438.402 199.804 437.805 200.026 437.574 200.531C437.343 201.036 437.565 201.633 438.07 201.864L440.012 202.753L438.756 205.496L434.528 203.559C434.024 203.328 433.427 203.55 433.196 204.055C432.964 204.56 433.186 205.156 433.691 205.388L437.919 207.324L436.349 210.752L427.436 206.67L435.266 189.575L444.179 193.657L442.943 196.355ZM424.249 182.317L425.627 179.309L459.366 194.762L457.988 197.77L424.249 182.317ZM468.816 197.858L460.067 198.061L461.606 194.7C461.608 194.695 461.611 194.69 461.613 194.685C461.616 194.68 461.617 194.675 461.619 194.67L463.207 191.204L468.816 197.858ZM461.62 189.839L460.203 192.933L426.465 177.481L427.882 174.387L461.62 189.839ZM457.597 164.361L455.654 163.471C455.149 163.24 454.552 163.462 454.321 163.966C454.09 164.471 454.312 165.068 454.817 165.299L456.759 166.189L455.503 168.931L451.275 166.995C450.771 166.764 450.174 166.985 449.943 167.49C449.711 167.995 449.933 168.592 450.438 168.823L454.666 170.759L453.41 173.502L451.467 172.612C450.963 172.381 450.366 172.603 450.135 173.108C449.903 173.612 450.125 174.209 450.63 174.44L452.573 175.33L451.316 178.072L447.089 176.136C446.584 175.905 445.987 176.127 445.756 176.631C445.525 177.136 445.746 177.733 446.251 177.964L450.479 179.9L449.486 182.07L440.573 177.987L449.94 157.536L458.852 161.618L457.597 164.361Z" fill="white"/>
</g>
<g opacity="0.3" clip-path="url(#clip1_73_3127)">
<path d="M1345.75 248.334C1345.51 248.196 1345.23 248.158 1344.96 248.23C1344.7 248.301 1344.47 248.476 1344.33 248.715L1339.64 256.834C1339.23 257.552 1338.55 258.076 1337.75 258.29C1336.94 258.505 1336.09 258.392 1335.37 257.978L1315.53 246.52C1314.81 246.105 1314.29 245.423 1314.07 244.622C1313.86 243.822 1313.97 242.969 1314.38 242.251L1331.05 213.383C1331.47 212.666 1332.15 212.142 1332.95 211.927C1333.75 211.713 1334.6 211.825 1335.32 212.24L1355.17 223.698C1355.78 224.049 1356.26 224.602 1356.52 225.263C1356.78 225.924 1356.8 226.653 1356.59 227.33C1356.5 227.594 1356.53 227.879 1356.66 228.124C1356.79 228.369 1357.01 228.553 1357.27 228.635C1357.53 228.718 1357.82 228.692 1358.06 228.564C1358.31 228.435 1358.49 228.215 1358.57 227.951C1358.93 226.823 1358.89 225.606 1358.46 224.504C1358.03 223.401 1357.24 222.48 1356.21 221.894L1336.36 210.435C1335.16 209.746 1333.74 209.56 1332.41 209.917C1331.08 210.275 1329.94 211.147 1329.25 212.342L1312.58 241.209C1311.89 242.406 1311.7 243.827 1312.06 245.161C1312.42 246.494 1313.29 247.632 1314.49 248.324L1334.33 259.782C1335.53 260.471 1336.95 260.657 1338.28 260.3C1339.62 259.943 1340.76 259.071 1341.45 257.876L1346.13 249.757C1346.27 249.518 1346.31 249.233 1346.24 248.966C1346.17 248.7 1345.99 248.472 1345.75 248.334Z" fill="white"/>
<path d="M1360.83 233.684L1360.31 232.782C1360.1 232.426 1359.83 232.114 1359.5 231.864C1359.18 231.614 1358.8 231.431 1358.41 231.325C1358.01 231.219 1357.6 231.192 1357.19 231.245C1356.78 231.299 1356.39 231.433 1356.03 231.639L1335.03 243.769C1334.33 244.173 1333.73 244.735 1333.28 245.409L1331.76 247.713C1331.55 248.036 1331.43 248.412 1331.42 248.799C1331.41 249.186 1331.5 249.569 1331.7 249.904C1331.89 250.239 1332.17 250.514 1332.51 250.697C1332.86 250.881 1333.24 250.965 1333.63 250.942L1336.38 250.777C1337.18 250.727 1337.97 250.491 1338.67 250.088L1359.69 237.954C1360.04 237.748 1360.35 237.475 1360.6 237.149C1360.85 236.823 1361.03 236.452 1361.14 236.055C1361.25 235.659 1361.27 235.245 1361.22 234.838C1361.17 234.431 1361.03 234.039 1360.83 233.684ZM1337.63 248.279C1337.21 248.52 1336.74 248.66 1336.26 248.689L1333.51 248.853L1335.02 246.553C1335.29 246.149 1335.65 245.813 1336.07 245.571L1353.47 235.523L1355.04 238.23L1337.63 248.279ZM1358.64 236.148L1356.84 237.19L1355.27 234.483L1357.08 233.441C1357.2 233.372 1357.33 233.328 1357.46 233.31C1357.6 233.292 1357.74 233.301 1357.87 233.336C1358 233.371 1358.12 233.433 1358.23 233.516C1358.34 233.599 1358.43 233.703 1358.5 233.822L1359.02 234.724C1359.09 234.842 1359.14 234.973 1359.15 235.109C1359.17 235.245 1359.16 235.383 1359.13 235.515C1359.09 235.647 1359.03 235.771 1358.95 235.88C1358.86 235.989 1358.76 236.08 1358.64 236.148ZM1351.52 230.012C1351.66 229.773 1351.7 229.489 1351.62 229.222C1351.55 228.955 1351.38 228.728 1351.14 228.589L1336.71 220.256C1336.47 220.118 1336.18 220.08 1335.91 220.152C1335.65 220.223 1335.42 220.398 1335.28 220.637C1335.14 220.877 1335.11 221.161 1335.18 221.428C1335.25 221.695 1335.42 221.922 1335.66 222.06L1350.1 230.394C1350.34 230.532 1350.62 230.569 1350.89 230.498C1351.15 230.426 1351.38 230.252 1351.52 230.012ZM1346.71 234.451C1346.85 234.212 1346.88 233.927 1346.81 233.661C1346.74 233.394 1346.57 233.166 1346.33 233.028L1330.87 224.106C1330.63 223.968 1330.35 223.931 1330.08 224.002C1329.82 224.074 1329.59 224.248 1329.45 224.487C1329.31 224.727 1329.28 225.011 1329.35 225.278C1329.42 225.545 1329.59 225.772 1329.83 225.91L1345.29 234.832C1345.52 234.97 1345.81 235.008 1346.08 234.936C1346.34 234.865 1346.57 234.69 1346.71 234.451ZM1340.46 238.062C1340.6 237.822 1340.64 237.538 1340.57 237.271C1340.49 237.004 1340.32 236.777 1340.08 236.639L1327.75 229.519C1327.51 229.381 1327.23 229.343 1326.96 229.415C1326.69 229.486 1326.46 229.661 1326.33 229.9C1326.19 230.139 1326.15 230.424 1326.22 230.691C1326.29 230.957 1326.47 231.185 1326.71 231.323L1339.04 238.443C1339.28 238.581 1339.56 238.618 1339.83 238.547C1340.1 238.475 1340.32 238.301 1340.46 238.062ZM1334.22 241.672C1334.35 241.433 1334.39 241.149 1334.32 240.882C1334.25 240.615 1334.07 240.387 1333.83 240.249L1324.62 234.932C1324.38 234.793 1324.1 234.756 1323.83 234.827C1323.57 234.899 1323.34 235.074 1323.2 235.313C1323.06 235.552 1323.03 235.836 1323.1 236.103C1323.17 236.37 1323.34 236.598 1323.58 236.736L1332.79 242.053C1333.03 242.192 1333.32 242.229 1333.58 242.158C1333.85 242.086 1334.08 241.911 1334.22 241.672ZM1321.5 240.344C1321.26 240.206 1320.98 240.169 1320.71 240.24C1320.44 240.312 1320.21 240.486 1320.08 240.725C1319.94 240.965 1319.9 241.249 1319.97 241.516C1320.04 241.783 1320.22 242.01 1320.46 242.148L1328.65 246.878C1328.89 247.016 1329.17 247.053 1329.44 246.982C1329.71 246.91 1329.93 246.736 1330.07 246.496C1330.21 246.257 1330.25 245.973 1330.18 245.706C1330.1 245.439 1329.93 245.211 1329.69 245.073L1321.5 240.344Z" fill="white"/>
</g>
<g opacity="0.3" clip-path="url(#clip2_73_3127)">
<path d="M878.334 154.523L877.53 154.741L877.312 153.936C877.138 153.296 876.718 152.752 876.143 152.422C875.567 152.092 874.885 152.004 874.245 152.178L866.158 154.37C865.241 151.888 863.459 149.82 861.14 148.547C858.821 147.274 856.119 146.88 853.533 147.44C850.803 148.065 848.422 149.725 846.892 152.072C845.362 154.418 844.802 157.266 845.33 160.017L837.247 162.208C836.607 162.382 836.062 162.802 835.732 163.377C835.403 163.953 835.315 164.635 835.488 165.275L835.706 166.08L834.902 166.298C834.262 166.471 833.717 166.892 833.387 167.467C833.058 168.042 832.97 168.725 833.143 169.365L840.557 196.711C840.731 197.351 841.151 197.896 841.726 198.225C842.302 198.555 842.984 198.643 843.624 198.47L860.789 193.816C861.376 194.668 862.213 195.317 863.185 195.673C864.157 196.029 865.215 196.075 866.214 195.804C867.213 195.533 868.103 194.959 868.762 194.161C869.42 193.363 869.815 192.38 869.892 191.348L887.056 186.695C887.696 186.521 888.241 186.1 888.571 185.525C888.901 184.95 888.989 184.267 888.815 183.628L881.401 156.281C881.228 155.641 880.807 155.097 880.232 154.767C879.657 154.437 878.974 154.349 878.334 154.523ZM875.703 154.372L883.117 181.719C883.175 181.932 883.146 182.16 883.036 182.351C882.926 182.543 882.744 182.683 882.531 182.741L867.249 186.884C866.379 187.12 865.609 187.631 865.054 188.343L861.783 176.278L862.093 176.194C862.634 176.049 863.123 175.756 863.505 175.347C863.887 174.938 864.147 174.43 864.256 173.881L864.639 171.98C865.06 171.761 865.41 171.425 865.646 171.013C865.882 170.601 865.996 170.129 865.972 169.655C865.949 169.181 865.791 168.723 865.515 168.336C865.24 167.948 864.86 167.648 864.419 167.471C864.475 167.247 864.495 167.015 864.477 166.785C864.374 165.69 864.629 164.59 865.204 163.652C866.601 161.354 867.099 158.62 866.603 155.976L874.681 153.786C874.894 153.728 875.122 153.758 875.313 153.868C875.505 153.978 875.645 154.159 875.703 154.372ZM854.627 172.174C854.569 171.961 854.598 171.733 854.708 171.542C854.818 171.35 855 171.21 855.213 171.152L863.256 168.971C863.47 168.914 863.697 168.943 863.889 169.053C864.081 169.163 864.221 169.344 864.279 169.558C864.336 169.771 864.307 169.999 864.197 170.19C864.087 170.382 863.906 170.522 863.692 170.58L855.649 172.761C855.436 172.818 855.209 172.789 855.017 172.679C854.825 172.569 854.685 172.388 854.627 172.174ZM857.977 168.676C857.49 167.049 856.776 165.498 855.857 164.07L859.124 163.184C859.052 164.881 859.219 166.58 859.62 168.23L857.977 168.676ZM862.825 172.542L862.62 173.554C862.572 173.799 862.456 174.025 862.286 174.208C862.116 174.39 861.898 174.521 861.657 174.585L859.429 175.189C859.188 175.256 858.934 175.253 858.694 175.182C858.455 175.111 858.24 174.974 858.075 174.786L857.387 174.016L862.825 172.542ZM848.1 153.283C849.31 151.248 851.268 149.766 853.556 149.153C853.671 149.121 853.787 149.09 853.906 149.065C856.178 148.57 858.553 148.945 860.561 150.117C862.57 151.288 864.066 153.17 864.755 155.391C865.116 156.623 865.217 157.917 865.049 159.19C864.882 160.464 864.451 161.688 863.783 162.785C863.02 164.026 862.681 165.481 862.816 166.932C862.819 167.059 862.778 167.182 862.7 167.282C862.622 167.382 862.512 167.452 862.389 167.48L861.228 167.795C860.318 163.802 861.057 161.433 861.063 161.408C861.133 161.198 861.116 160.969 861.017 160.771C860.918 160.574 860.745 160.423 860.535 160.354C860.325 160.284 860.097 160.3 859.899 160.399C859.701 160.498 859.551 160.672 859.481 160.882C859.472 160.91 859.415 161.09 859.349 161.397L854.76 162.641C854.641 162.509 854.516 162.383 854.385 162.263C854.219 162.118 854.002 162.046 853.782 162.06C853.562 162.075 853.357 162.176 853.212 162.342C853.067 162.507 852.993 162.724 853.006 162.944C853.02 163.164 853.12 163.369 853.285 163.515C853.305 163.533 855.139 165.204 856.37 169.112L855.208 169.426C855.086 169.464 854.954 169.458 854.836 169.41C854.717 169.361 854.619 169.273 854.558 169.16C853.962 167.859 852.958 166.789 851.698 166.111C850.594 165.531 849.62 164.731 848.836 163.761C848.052 162.792 847.474 161.672 847.137 160.472C846.801 159.271 846.712 158.014 846.878 156.778C847.043 155.542 847.459 154.353 848.1 153.283ZM837.097 164.839C837.039 164.626 837.068 164.398 837.178 164.207C837.288 164.015 837.47 163.875 837.683 163.817L845.768 161.625C846.68 164.185 848.518 166.31 850.918 167.584C851.859 168.093 852.609 168.896 853.052 169.869C853.154 170.082 853.29 170.276 853.455 170.444C853.164 170.82 852.987 171.271 852.945 171.744C852.903 172.218 852.997 172.693 853.217 173.114C853.436 173.536 853.772 173.885 854.184 174.122C854.596 174.359 855.067 174.472 855.542 174.449L856.83 175.894C857.201 176.313 857.682 176.62 858.219 176.78C858.755 176.94 859.325 176.946 859.865 176.798L860.175 176.714L863.446 188.779C862.608 188.444 861.685 188.391 860.815 188.628L845.533 192.772C845.32 192.829 845.092 192.8 844.901 192.69C844.709 192.58 844.569 192.399 844.511 192.185L837.097 164.839ZM887.207 184.064C887.264 184.277 887.235 184.504 887.125 184.696C887.015 184.888 886.834 185.028 886.62 185.086L868.845 189.905C868.66 189.955 868.497 190.068 868.386 190.224C868.274 190.38 868.219 190.57 868.231 190.762C868.281 191.529 868.064 192.29 867.616 192.916C867.169 193.541 866.519 193.993 865.777 194.194C865.035 194.395 864.246 194.334 863.544 194.02C862.842 193.706 862.271 193.159 861.926 192.472C861.839 192.3 861.696 192.164 861.521 192.085C861.346 192.007 861.149 191.992 860.963 192.042L843.188 196.861C842.975 196.919 842.747 196.89 842.556 196.78C842.364 196.67 842.224 196.488 842.166 196.275L834.752 168.929C834.694 168.715 834.723 168.488 834.833 168.296C834.943 168.104 835.125 167.964 835.338 167.906L836.142 167.688L842.902 192.621C843.076 193.261 843.496 193.806 844.071 194.136C844.647 194.466 845.329 194.554 845.969 194.38L861.251 190.237C861.769 190.1 862.318 190.132 862.817 190.328C863.316 190.525 863.739 190.875 864.026 191.328C864.141 191.505 864.309 191.64 864.506 191.714C864.704 191.787 864.919 191.797 865.122 191.74C865.325 191.682 865.504 191.562 865.633 191.396C865.763 191.23 865.836 191.027 865.843 190.817C865.863 190.284 866.053 189.772 866.385 189.354C866.716 188.936 867.171 188.634 867.685 188.493L882.967 184.35C883.607 184.176 884.152 183.755 884.482 183.18C884.811 182.605 884.899 181.922 884.726 181.283L877.966 156.349L878.77 156.131C878.984 156.073 879.211 156.103 879.403 156.213C879.595 156.323 879.735 156.504 879.793 156.717L887.207 184.064Z" fill="white"/>
<path d="M841.622 168.793L845.644 167.703C845.857 167.645 846.039 167.505 846.149 167.313C846.259 167.121 846.288 166.894 846.23 166.68C846.172 166.467 846.032 166.285 845.84 166.175C845.648 166.065 845.421 166.036 845.208 166.094L841.186 167.184C840.973 167.242 840.791 167.382 840.681 167.574C840.571 167.766 840.542 167.993 840.6 168.207C840.658 168.42 840.798 168.602 840.99 168.712C841.181 168.821 841.409 168.851 841.622 168.793ZM842.931 173.619L849.365 171.874C849.578 171.816 849.76 171.676 849.87 171.484C849.98 171.293 850.009 171.065 849.951 170.852C849.893 170.639 849.753 170.457 849.561 170.347C849.37 170.237 849.142 170.208 848.929 170.266L842.494 172.01C842.281 172.068 842.1 172.208 841.99 172.4C841.88 172.592 841.85 172.819 841.908 173.032C841.966 173.246 842.106 173.427 842.298 173.537C842.49 173.647 842.717 173.677 842.931 173.619ZM844.239 178.444L851.478 176.482C851.691 176.424 851.873 176.284 851.982 176.092C852.092 175.9 852.122 175.673 852.064 175.46C852.006 175.246 851.866 175.065 851.674 174.955C851.482 174.845 851.255 174.816 851.041 174.873L843.803 176.836C843.589 176.894 843.408 177.034 843.298 177.226C843.188 177.417 843.159 177.645 843.217 177.858C843.274 178.072 843.415 178.253 843.606 178.363C843.798 178.473 844.026 178.502 844.239 178.444ZM869.773 161.161L873.794 160.071C874.008 160.013 874.189 159.873 874.299 159.681C874.409 159.489 874.438 159.262 874.38 159.048C874.323 158.835 874.182 158.653 873.991 158.543C873.799 158.434 873.571 158.404 873.358 158.462L869.337 159.552C869.123 159.61 868.942 159.75 868.832 159.942C868.722 160.134 868.693 160.361 868.75 160.575C868.808 160.788 868.948 160.97 869.14 161.08C869.332 161.19 869.559 161.219 869.773 161.161ZM874.666 163.288L868.232 165.032C868.019 165.09 867.837 165.23 867.727 165.422C867.617 165.614 867.588 165.841 867.646 166.055C867.704 166.268 867.844 166.45 868.036 166.56C868.227 166.669 868.455 166.699 868.668 166.641L875.103 164.896C875.316 164.839 875.497 164.698 875.607 164.507C875.717 164.315 875.747 164.087 875.689 163.874C875.631 163.661 875.491 163.479 875.299 163.369C875.107 163.259 874.88 163.23 874.666 163.288ZM875.975 168.114L868.736 170.076C868.523 170.134 868.341 170.274 868.231 170.466C868.121 170.658 868.092 170.885 868.15 171.099C868.208 171.312 868.348 171.493 868.54 171.603C868.731 171.713 868.959 171.743 869.172 171.685L876.411 169.722C876.624 169.664 876.806 169.524 876.916 169.333C877.026 169.141 877.055 168.913 876.997 168.7C876.939 168.487 876.799 168.305 876.607 168.195C876.416 168.085 876.188 168.056 875.975 168.114ZM845.547 183.27L857.612 179.999C857.825 179.942 858.007 179.801 858.117 179.61C858.227 179.418 858.256 179.19 858.198 178.977C858.14 178.764 858 178.582 857.808 178.472C857.616 178.362 857.389 178.333 857.176 178.391L845.111 181.662C844.898 181.719 844.716 181.86 844.606 182.051C844.496 182.243 844.467 182.471 844.525 182.684C844.583 182.897 844.723 183.079 844.915 183.189C845.106 183.299 845.334 183.328 845.547 183.27ZM846.856 188.096L856.507 185.479C856.72 185.422 856.902 185.281 857.012 185.09C857.122 184.898 857.151 184.67 857.093 184.457C857.036 184.244 856.895 184.062 856.704 183.952C856.512 183.842 856.284 183.813 856.071 183.871L846.419 186.487C846.206 186.545 846.025 186.685 845.915 186.877C845.805 187.069 845.775 187.296 845.833 187.51C845.891 187.723 846.031 187.905 846.223 188.015C846.415 188.125 846.642 188.154 846.856 188.096ZM877.283 172.939L865.219 176.21C865.005 176.268 864.824 176.408 864.714 176.6C864.604 176.792 864.575 177.019 864.632 177.233C864.69 177.446 864.83 177.628 865.022 177.738C865.214 177.847 865.441 177.877 865.655 177.819L877.719 174.548C877.933 174.49 878.114 174.35 878.224 174.158C878.334 173.967 878.363 173.739 878.305 173.526C878.248 173.312 878.107 173.131 877.916 173.021C877.724 172.911 877.496 172.882 877.283 172.939ZM876.179 178.419L866.527 181.036C866.314 181.094 866.132 181.234 866.022 181.426C865.912 181.618 865.883 181.845 865.941 182.058C865.999 182.272 866.139 182.453 866.33 182.563C866.522 182.673 866.75 182.703 866.963 182.645L876.615 180.028C876.828 179.97 877.01 179.83 877.119 179.638C877.229 179.447 877.259 179.219 877.201 179.006C877.143 178.792 877.003 178.611 876.811 178.501C876.619 178.391 876.392 178.362 876.179 178.419Z" fill="white"/>
</g>
<path opacity="0.5" d="M1554.71 186.664L1373.71 367.663L1373.71 186.664L1554.71 186.664Z" fill="white" fill-opacity="0.1"/>
<path opacity="0.05" d="M1373.67 0L1373.67 186.664L1187 186.664L1187 -8.15943e-06L1373.67 0Z" fill="white"/>
<path opacity="0.5" d="M367.71 204.664L186.711 385.663L186.711 204.664L367.71 204.664Z" fill="white" fill-opacity="0.1"/>
<path opacity="0.05" d="M186.666 18L186.666 204.664L6.81346e-05 204.664L7.62939e-05 18L186.666 18Z" fill="white"/>
<defs>
<linearGradient id="paint0_linear_73_3127" x1="822" y1="118" x2="822" y2="307" gradientUnits="userSpaceOnUse">
<stop stop-color="#C3501A"/>
<stop offset="1" stop-color="#FF610F"/>
</linearGradient>
<clipPath id="clip0_73_3127">
<rect width="50" height="50" fill="white" transform="translate(411 169.422) rotate(-20.3917)"/>
</clipPath>
<clipPath id="clip1_73_3127">
<rect width="50" height="50" fill="white" transform="translate(1328 202) rotate(30)"/>
</clipPath>
<clipPath id="clip2_73_3127">
<rect width="50" height="50" fill="white" transform="translate(829 154.083) rotate(-15.1689)"/>
</clipPath>
</defs>
</svg>
