<svg width="1440" height="394" viewBox="0 0 1440 394" fill="none" xmlns="http://www.w3.org/2000/svg">
<g opacity="0.1">
<line x1="0.5" y1="-260" x2="0.499978" y2="236.173" stroke="white" stroke-opacity="0.2"></line>
<line x1="89.667" y1="-260" x2="89.667" y2="236.173" stroke="white" stroke-opacity="0.2"></line>
<line x1="178.833" y1="-260" x2="178.833" y2="236.173" stroke="white" stroke-opacity="0.2"></line>
<line x1="268" y1="-260" x2="268" y2="236.173" stroke="white" stroke-opacity="0.2"></line>
<line x1="357.166" y1="-260" x2="357.166" y2="236.173" stroke="white" stroke-opacity="0.2"></line>
<line x1="446.334" y1="-260" x2="446.334" y2="236.173" stroke="white" stroke-opacity="0.2"></line>
<line y1="73.998" x2="535" y2="73.998" stroke="white" stroke-opacity="0.2"></line>
<line y1="157.623" x2="535" y2="157.623" stroke="white" stroke-opacity="0.2"></line>
<rect x="89.7617" y="74.499" width="88.5722" height="83.0672" fill="white" fill-opacity="0.1"></rect>
<rect x="90.2617" y="74.999" width="87.5722" height="82.0672" stroke="white" stroke-opacity="0.2"></rect>
<rect x="268.095" y="74.499" width="88.5722" height="83.0672" fill="white" fill-opacity="0.1"></rect>
<rect x="268.595" y="74.999" width="87.5722" height="82.0672" stroke="white" stroke-opacity="0.2"></rect>
<rect x="446.428" y="74.498" width="88.5722" height="83.0672" fill="white" fill-opacity="0.04"></rect>
<rect x="446.928" y="74.998" width="87.5722" height="82.0672" stroke="white" stroke-opacity="0.2"></rect>
<rect x="268.095" y="158.123" width="88.5722" height="78.0497" fill="white" fill-opacity="0.03"></rect>
<rect x="268.595" y="158.623" width="87.5722" height="77.0497" stroke="white" stroke-opacity="0.2"></rect>
<rect x="89.7617" y="158.123" width="88.5722" height="78.0497" fill="white" fill-opacity="0.03"></rect>
<rect x="90.2617" y="158.623" width="87.5722" height="77.0497" stroke="white" stroke-opacity="0.2"></rect>
</g>
<g opacity="0.04">
<line x1="1439.5" y1="639.173" x2="1439.5" y2="143" stroke="#43198F"></line>
<line x1="1350.33" y1="639.173" x2="1350.33" y2="143" stroke="#43198F"></line>
<line x1="1261.17" y1="639.173" x2="1261.17" y2="143" stroke="#43198F"></line>
<line x1="1172" y1="639.173" x2="1172" y2="143" stroke="#43198F"></line>
<line x1="1082.83" y1="639.173" x2="1082.83" y2="143" stroke="#43198F"></line>
<line x1="993.666" y1="639.173" x2="993.666" y2="143" stroke="#43198F"></line>
<line x1="1440" y1="388.799" x2="905" y2="388.799" stroke="#43198F"></line>
<line x1="1440" y1="305.174" x2="905" y2="305.174" stroke="#43198F"></line>
<line x1="1440" y1="221.549" x2="905" y2="221.549" stroke="#43198F"></line>
<rect x="1349.74" y="304.174" width="87.5722" height="82.0672" transform="rotate(180 1349.74 304.174)" fill="url(#paint0_linear_0_1)" fill-opacity="0.34" stroke="#43198F"></rect>
<rect x="1438.91" y="471.424" width="87.5722" height="82.0672" transform="rotate(180 1438.91 471.424)" fill="white" fill-opacity="0.04" stroke="#43198F"></rect>
<rect x="1260.57" y="471.424" width="87.5722" height="82.0672" transform="rotate(180 1260.57 471.424)" fill="white" fill-opacity="0.1" stroke="#43198F"></rect>
<rect x="1082.24" y="471.424" width="87.5722" height="82.0672" transform="rotate(180 1082.24 471.424)" fill="white" fill-opacity="0.04" stroke="#43198F"></rect>
<rect x="1171.41" y="304.174" width="87.5722" height="82.0672" transform="rotate(180 1171.41 304.174)" fill="url(#paint1_linear_0_1)" fill-opacity="0.4" stroke="#43198F"></rect>
<rect x="993.074" y="304.174" width="87.5722" height="82.0672" transform="rotate(180 993.074 304.174)" fill="url(#paint2_linear_0_1)" fill-opacity="0.34" stroke="#43198F"></rect>
<rect x="1171.5" y="220.673" width="88" height="77" transform="rotate(180 1171.5 220.673)" fill="url(#paint3_linear_0_1)" fill-opacity="0.4" stroke="#43198F"></rect>
<rect x="1349.74" y="220.55" width="87.5722" height="77.0497" transform="rotate(180 1349.74 220.55)" fill="white" fill-opacity="0.03" stroke="#43198F"></rect>
</g>
<g opacity="0.04">
<line y1="-0.5" x2="496.173" y2="-0.5" transform="matrix(4.37114e-08 1 1 -4.37114e-08 535 -240)" stroke="#43198F"></line>
<line y1="-0.5" x2="496.173" y2="-0.5" transform="matrix(4.66082e-08 1 1 -4.09946e-08 445.834 -240)" stroke="#43198F"></line>
<line y1="-0.5" x2="496.173" y2="-0.5" transform="matrix(4.66082e-08 1 1 -4.09946e-08 356.666 -240)" stroke="#43198F"></line>
<line y1="-0.5" x2="496.173" y2="-0.5" transform="matrix(4.66082e-08 1 1 -4.09946e-08 267.5 -240)" stroke="#43198F"></line>
<line y1="-0.5" x2="496.173" y2="-0.5" transform="matrix(4.66082e-08 1 1 -4.09946e-08 178.333 -240)" stroke="#43198F"></line>
<line y1="-0.5" x2="496.173" y2="-0.5" transform="matrix(4.66082e-08 1 1 -4.09946e-08 89.166 -240)" stroke="#43198F"></line>
<line y1="-0.5" x2="535" y2="-0.5" transform="matrix(-1 0 0 1 535 10.874)" stroke="#43198F"></line>
<line y1="-0.5" x2="535" y2="-0.5" transform="matrix(-1 0 0 1 535 94.499)" stroke="#43198F"></line>
<line y1="-0.5" x2="535" y2="-0.5" transform="matrix(-1 0 0 1 535 178.124)" stroke="#43198F"></line>
<rect x="-0.5" y="0.5" width="87.5722" height="82.0672" transform="matrix(-1 0 0 1 444.24 94.499)" fill="url(#paint4_linear_0_1)" fill-opacity="0.34" stroke="#43198F"></rect>
<rect x="-0.5" y="0.5" width="87.5722" height="82.0672" transform="matrix(-1 0 0 1 533.406 -72.751)" fill="white" fill-opacity="0.04" stroke="#43198F"></rect>
<rect x="-0.5" y="0.5" width="87.5722" height="82.0672" transform="matrix(-1 0 0 1 355.072 -72.751)" fill="white" fill-opacity="0.1" stroke="#43198F"></rect>
<rect x="-0.5" y="0.5" width="87.5722" height="82.0672" transform="matrix(-1 0 0 1 176.739 -72.751)" fill="white" fill-opacity="0.04" stroke="#43198F"></rect>
<rect x="-0.5" y="0.5" width="87.5722" height="82.0672" transform="matrix(-1 0 0 1 265.906 94.499)" fill="url(#paint5_linear_0_1)" fill-opacity="0.4" stroke="#43198F"></rect>
<rect x="-0.5" y="0.5" width="87.5722" height="82.0672" transform="matrix(-1 0 0 1 87.5732 94.498)" fill="url(#paint6_linear_0_1)" fill-opacity="0.34" stroke="#43198F"></rect>
<rect x="-0.5" y="0.5" width="88" height="77" transform="matrix(-1 0 0 1 266.001 178)" fill="url(#paint7_linear_0_1)" fill-opacity="0.4" stroke="#43198F"></rect>
<rect x="-0.5" y="0.5" width="87.5722" height="77.0497" transform="matrix(-1 0 0 1 444.24 178.123)" fill="white" fill-opacity="0.03" stroke="#43198F"></rect>
</g>
<defs>
<linearGradient id="paint0_linear_0_1" x1="1394.53" y1="304.674" x2="1394.53" y2="387.741" gradientUnits="userSpaceOnUse">
<stop stop-color="#4E17A8"></stop>
<stop offset="1" stop-color="#341C6E"></stop>
</linearGradient>
<linearGradient id="paint1_linear_0_1" x1="1216.19" y1="304.674" x2="1216.19" y2="387.741" gradientUnits="userSpaceOnUse">
<stop stop-color="#4E17A8"></stop>
<stop offset="1" stop-color="#341C6E"></stop>
</linearGradient>
<linearGradient id="paint2_linear_0_1" x1="1037.86" y1="304.674" x2="1037.86" y2="387.741" gradientUnits="userSpaceOnUse">
<stop stop-color="#4E17A8"></stop>
<stop offset="1" stop-color="#341C6E"></stop>
</linearGradient>
<linearGradient id="paint3_linear_0_1" x1="1216.5" y1="221.173" x2="1216.5" y2="299.173" gradientUnits="userSpaceOnUse">
<stop stop-color="#4E17A8"></stop>
<stop offset="1" stop-color="#341C6E"></stop>
</linearGradient>
<linearGradient id="paint4_linear_0_1" x1="44.2861" y1="0" x2="44.2861" y2="83.0672" gradientUnits="userSpaceOnUse">
<stop stop-color="#4E17A8"></stop>
<stop offset="1" stop-color="#341C6E"></stop>
</linearGradient>
<linearGradient id="paint5_linear_0_1" x1="44.2861" y1="0" x2="44.2861" y2="83.0672" gradientUnits="userSpaceOnUse">
<stop stop-color="#4E17A8"></stop>
<stop offset="1" stop-color="#341C6E"></stop>
</linearGradient>
<linearGradient id="paint6_linear_0_1" x1="44.2861" y1="0" x2="44.2861" y2="83.0672" gradientUnits="userSpaceOnUse">
<stop stop-color="#4E17A8"></stop>
<stop offset="1" stop-color="#341C6E"></stop>
</linearGradient>
<linearGradient id="paint7_linear_0_1" x1="44.5" y1="0" x2="44.5" y2="78" gradientUnits="userSpaceOnUse">
<stop stop-color="#4E17A8"></stop>
<stop offset="1" stop-color="#341C6E"></stop>
</linearGradient>
</defs>
</svg>